HIERARCHY
ROOT Hips
{
    OFFSET 0.000000 0.000000 0.000000
    CHANNELS 6 Xposition Yposition Zposition Zrotation Xrotation Yrotation
        JOINT Chest
        {
            OFFSET -0.000000 30.832245 -0.000000
            CHANNELS 3 Zrotation Xrotation Yrotation
            JOINT Neck
            {
                OFFSET -0.000000 22.747684 0.000000
                CHANNELS 3 Zrotation Xrotation Yrotation
                JOINT Head
                {
                    OFFSET -0.000000 10.755556 0.000000
                    CHANNELS 3 Zrotation Xrotation Yrotation
                    End Site
                    {
                        OFFSET -0.000000 16.622223 0.000000
                    }
                }
            }
            JOINT LeftCollar
            {
                OFFSET -0.000000 22.747684 0.000000
                CHANNELS 3 Zrotation Xrotation Yrotation
                JOINT LeftShoulder
                {
                    OFFSET 19.555553 -0.000000 0.000000
                    CHANNELS 3 Zrotation Xrotation Yrotation
                    JOINT LeftElbow
                    {
                        OFFSET 22.529686 0.000000 0.000000
                        CHANNELS 3 Zrotation Xrotation Yrotation
                        JOINT LeftWrist
                        {
                            OFFSET 26.249420 0.000000 0.000000
                            CHANNELS 3 Zrotation Xrotation Yrotation
                            End Site
                            {
                                OFFSET 0.000000 -14.666668 0.000000
                            }
                        }
                    }
                }
            }
            JOINT RightCollar
            {
                OFFSET -0.000000 22.747684 0.000000
                CHANNELS 3 Zrotation Xrotation Yrotation
                JOINT RightShoulder
                {
                    OFFSET -19.555553 0.000000 0.000000
                    CHANNELS 3 Zrotation Xrotation Yrotation
                    JOINT RightElbow
                    {
                        OFFSET -22.529686 0.000000 0.000000
                        CHANNELS 3 Zrotation Xrotation Yrotation
                        JOINT RightWrist
                        {
                            OFFSET -26.249420 0.000000 0.000000
                            CHANNELS 3 Zrotation Xrotation Yrotation
                            End Site
                            {
                                OFFSET -0.000000 -14.666668 0.000000
                            }
                        }
                    }
                }
            }
        }
    JOINT LeftHip
    {
        OFFSET 11.733333 0.000000 0.000000
        CHANNELS 3 Zrotation Xrotation Yrotation
        JOINT LeftKnee
        {
            OFFSET -0.000000 -34.781296 0.000000
            CHANNELS 3 Zrotation Xrotation Yrotation
            JOINT LeftAnkle
            {
                OFFSET -0.000000 -42.425819 0.000000
                CHANNELS 3 Zrotation Xrotation Yrotation
                End Site
                {
                    OFFSET -0.000000 -4.888888 16.622223
                }
            }
        }
    }
    JOINT RightHip
    {
        OFFSET -11.733333 0.000000 0.000000
        CHANNELS 3 Zrotation Xrotation Yrotation
        JOINT RightKnee
        {
            OFFSET -0.000000 -34.781296 0.000000
            CHANNELS 3 Zrotation Xrotation Yrotation
            JOINT RightAnkle
            {
                OFFSET -0.000000 -42.425819 0.000000
                CHANNELS 3 Zrotation Xrotation Yrotation
                End Site
                {
                    OFFSET -0.000000 -4.888888 16.622223
                }
            }
        }
    }
}
MOTION
Frames:    16
Frame Time:    0.010000
-67.540337    85.669113    -11.068346    -6.573509    3.539747    35.296066    1.284281    19.276802    -23.264893    -13.121957    4.650120    14.647079    8.964597    -7.297988    14.655805    -5.212946    0.135465    -2.861617    2.749624    22.241508    -106.159279    33.003353    -16.252254    -51.797882    117.441261    -26.679775    -7.059532    6.037657    0.545081    9.742343    52.316631    27.008028    23.124199    -34.345886    -30.404385    85.589584    -156.991226    32.714993    -26.219952    19.029795    -7.728029    3.553870    -5.788561    24.133612    2.258590    -7.759024    -9.729744    22.452864    -7.679155    -23.067312    8.215870    2.684460    20.116224    -0.925385    8.220983    -2.464590    -10.262824    
-67.083511    85.540405    -11.429914    -6.200545    3.314252    35.722603    1.026252    19.213867    -22.337290    -12.856314    4.793222    14.076933    8.799073    -7.334243    14.073746    -5.500487    0.114987    -2.643885    1.991621    23.910118    -104.486885    32.670055    -16.062561    -51.768829    117.705284    -25.650961    -6.366526    6.205273    0.524321    9.483114    51.901424    28.155390    23.434837    -32.341930    -28.625742    85.520073    -156.524979    31.782471    -25.956083    18.928780    -8.511706    3.631675    -6.148794    25.090103    1.610029    -7.608438    -9.299197    22.407757    -8.348726    -22.599239    8.311786    2.742389    20.180046    -1.303414    8.580301    -2.638674    -10.508029    
-66.611145    85.377838    -11.806976    -5.837633    3.084873    36.033112    0.723409    19.147772    -21.353653    -12.375035    4.779687    13.500151    8.397506    -7.114568    13.478971    -5.799044    0.100089    -2.382999    1.293799    25.444658    -102.849838    32.232941    -15.796669    -51.738087    118.178619    -24.604145    -5.621046    6.354464    0.520607    9.274998    51.461105    29.226740    23.794767    -30.529154    -26.858156    85.142761    -155.803635    30.771900    -25.945009    18.806507    -9.110770    3.665089    -6.709348    26.178644    1.341767    -7.285595    -9.077626    22.440689    -9.001050    -22.236042    8.355865    2.804545    20.371088    -1.554265    8.921465    -2.836646    -10.707608    
-66.124084    85.184013    -12.198503    -5.486758    2.850698    36.229221    0.389604    19.076401    -20.320356    -11.741563    4.625453    12.925121    7.840771    -6.686320    12.885663    -6.097744    0.091924    -2.077219    0.686673    26.849026    -101.289238    31.758560    -15.517624    -51.674042    118.780342    -23.592747    -4.857784    6.501947    0.516134    9.110795    50.981922    30.220776    24.179703    -28.873171    -25.149473    84.552071    -154.848450    29.654604    -26.130569    18.653496    -9.491366    3.682819    -7.414057    27.281521    1.400527    -6.812244    -9.092753    22.554504    -9.634240    -21.980322    8.334929    2.861109    20.688522    -1.659137    9.262583    -3.058395    -10.859694    
-65.623665    84.963234    -12.603765    -5.150633    2.613292    36.323288    0.043830    18.996857    -19.255119    -11.032479    4.370403    12.360942    7.221936    -6.128893    12.306596    -6.389372    0.067335    -1.730779    0.186986    28.160591    -99.831795    31.301174    -15.247611    -51.560303    119.477310    -22.626009    -4.071866    6.660368    0.521319    8.978257    50.456345    31.117258    24.585432    -27.304480    -23.457851    83.827164    -153.766754    28.476131    -26.433687    18.457954    -9.647152    3.737507    -8.175417    28.304409    1.656281    -6.218823    -9.352374    22.748737    -10.248768    -21.831959    8.240709    2.903747    21.127901    -1.612910    9.632363    -3.304084    -10.965090    
-65.111908    84.721588    -13.022431    -4.832899    2.378001    36.337986    -0.293081    18.904827    -18.185553    -10.322690    4.073163    11.816956    6.625850    -5.542778    11.753901    -6.666330    0.109059    -1.349745    -0.214814    29.316458    -98.470856    30.758310    -14.909477    -51.450890    120.401718    -21.592098    -3.223778    6.846358    0.515835    8.867378    49.882141    31.926119    24.986341    -25.782104    -21.795870    83.045837    -152.619705    27.232304    -26.786188    18.208755    -9.604490    3.884438    -8.893035    29.193863    1.944682    -5.534194    -9.837552    23.013235    -10.848331    -21.788992    8.069952    2.927377    21.680721    -1.426694    10.057130    -3.571115    -11.025681    
-64.591660    84.466919    -13.454342    -4.537048    2.154066    36.303818    -0.602605    18.796307    -17.144930    -9.675309    3.795695    11.299681    6.118667    -5.027235    11.233855    -6.930260    0.080076    -0.945719    -0.512582    30.471327    -97.226944    30.360245    -14.687379    -51.268089    121.274658    -20.683279    -2.420647    7.061628    0.549222    8.764874    49.249943    32.611469    25.413174    -24.227999    -20.086006    82.247581    -151.514252    25.963573    -27.126377    17.898619    -9.419417    4.155938    -9.482615    29.939411    2.121165    -4.782030    -10.502062    23.328568    -11.439830    -21.847191    7.825320    2.930897    22.333899    -1.129273    10.544476    -3.850776    -11.045049    
-64.066368    84.208389    -13.898961    -4.264299    1.953378    36.255177    -0.873366    18.668653    -16.166775    -9.132841    3.594479    10.815677    5.739769    -4.668017    10.751210    -7.179667    0.034821    -0.527108    -0.741521    31.587782    -96.057449    29.916622    -14.413792    -51.111984    122.334511    -19.706356    -1.588700    7.320540    0.560599    8.662162    48.573139    33.231575    25.817259    -22.669012    -18.438412    81.490387    -150.401840    24.615105    -27.425579    17.525913    -9.166824    4.544230    -9.900578    30.563204    2.100765    -3.983176    -11.280268    23.671947    -12.033311    -21.998266    7.515487    2.917053    23.069460    -0.764816    11.080303    -4.126541    -11.028083    
-63.539886    83.955833    -14.354637    -4.012439    1.787574    36.226254    -1.102541    18.523596    -15.280473    -8.715277    3.505696    10.367702    5.504041    -4.518289    10.308249    -7.415099    0.008137    -0.102026    -0.915045    32.641785    -94.947655    29.432032    -14.112427    -50.995327    123.513512    -18.708551    -0.780131    7.616047    0.585313    8.550331    47.874207    33.765766    26.214798    -21.054161    -16.760366    80.770607    -149.378693    23.270439    -27.668512    17.095554    -8.925517    4.998127    -10.153732    31.104155    1.875247    -3.158866    -12.097046    24.020357    -12.639499    -22.227753    7.155067    2.891146    23.864931    -0.385312    11.636537    -4.375034    -10.985658    
-63.016064    83.718933    -14.818065    -3.776420    1.665417    36.247841    -1.294586    18.366995    -14.509085    -8.424109    3.544013    9.959840    5.406817    -4.600812    9.907314    -7.636966    -0.026563    0.327198    -1.037907    33.665707    -93.892426    28.963446    -13.843102    -50.903450    124.719223    -17.758875    -0.040946    7.938426    0.633425    8.426847    47.173569    34.219589    26.610310    -19.386202    -15.088418    80.104065    -148.431488    21.917974    -27.843102    16.618456    -8.764393    5.436792    -10.290297    31.604094    1.500253    -2.330274    -12.878253    24.353329    -13.267024    -22.514469    6.762911    2.859746    24.693970    -0.040480    12.180758    -4.567941    -10.938145    
-62.498528    83.506393    -15.284099    -3.550627    1.590289    36.344601    -1.457971    18.208677    -13.867606    -8.246387    3.702329    9.593010    5.430577    -4.906200    9.550819    -7.841302    -0.062763    0.757714    -1.122980    34.656345    -92.873863    28.478823    -13.572958    -50.858242    125.968048    -16.845051    0.637602    8.283085    0.639359    8.292329    46.527081    34.653641    26.945868    -17.728556    -13.519354    79.506485    -147.496506    20.550692    -27.946627    16.110868    -8.731645    5.773134    -10.380271    32.098522    1.067025    -1.516217    -13.559569    24.651262    -13.918165    -22.831932    6.361027    2.829504    25.528908    0.227413    12.684978    -4.676260    -10.915717    
-61.990555    83.325211    -15.746084    -3.330919    1.558386    36.532780    -1.600814    18.063255    -13.361304    -8.160837    3.952889    9.268374    5.550180    -5.399364    9.240593    -8.020811    -0.065813    1.188829    -1.185092    35.577965    -91.874275    27.935471    -13.279363    -50.881786    127.279602    -15.962527    1.261055    8.625278    0.639847    8.153977    45.980148    35.041412    27.231485    -16.047129    -11.954373    78.934181    -146.668381    19.242319    -27.983549    15.592813    -8.847910    5.938672    -10.493287    32.610146    0.666992    -0.731725    -14.092911    24.897594    -14.585530    -23.150743    5.973084    2.805622    26.344336    0.383088    13.128235    -4.675347    -10.950632    
-61.495037    83.180206    -16.196581    -3.116426    1.559023    36.818630    -1.727916    17.948511    -12.984233    -8.141588    4.254610    8.982731    5.736807    -6.027113    8.974998    -8.164065    -0.103594    1.615868    -1.231460    36.492023    -90.897202    27.441940    -13.048352    -50.924629    128.529251    -15.214255    1.826307    8.939111    0.656176    8.018867    45.555599    35.372593    27.480440    -14.355529    -10.422678    78.372849    -145.928040    17.964689    -27.930216    15.086171    -9.104840    5.899881    -10.682239    33.144199    0.365702    0.012724    -14.450161    25.080561    -15.250154    -23.443169    5.623384    2.789975    27.120853    0.396562    13.493307    -4.546760    -11.069039    
-61.014484    83.073936    -16.628283    -2.910241    1.575965    37.198494    -1.838590    17.881519    -12.720765    -8.161174    4.561677    8.731158    5.959151    -6.728168    8.749496    -8.262332    -0.134716    2.034413    -1.281024    37.349983    -89.916260    26.874702    -12.767185    -51.039242    129.860107    -14.493382    2.403739    9.208876    0.653932    7.895375    45.280712    35.680298    27.667946    -12.709031    -8.996847    77.817696    -145.225937    16.695724    -27.764359    14.612526    -9.468900    5.662604    -10.973436    33.687038    0.189840    0.710170    -14.622929    25.195295    -15.881965    -23.686672    5.335116    2.779341    27.846684    0.244331    13.764442    -4.279968    -11.283595    
-60.551052    83.006866    -17.035011    -2.718397    1.590674    37.660114    -1.927468    17.874226    -12.548673    -8.193388    4.833614    8.505790    6.186256    -7.442988    8.555705    -8.307392    -0.164472    2.437703    -1.341258    38.152309    -88.934464    26.262642    -12.479891    -51.199436    131.231949    -13.839025    3.006644    9.417424    0.654411    7.787660    45.160160    35.950626    27.808334    -11.091365    -7.616797    77.224350    -144.629150    15.470612    -27.489342    14.190015    -9.889491    5.266659    -11.362918    34.208843    0.126450    1.355708    -14.619951    25.243660    -16.444242    -23.867949    5.127199    2.765748    28.518837    -0.086361    13.928376    -3.875388    -11.591027    
-60.106586    82.977898    -17.412373    -2.548932    1.585897    38.185680    -1.985828    17.929981    -12.443197    -8.215583    5.042065    8.297544    6.388973    -8.121783    8.383244    -8.293394    -0.198130    2.818443    -1.429679    38.905621    -87.945206    25.597658    -12.173261    -51.398006    132.652328    -13.237338    3.669381    9.560719    0.653925    7.695464    45.169460    36.200485    27.914940    -9.526724    -6.318659    76.581062    -144.113098    14.281990    -27.097279    13.831652    -10.310213    4.773402    -11.819826    34.670753    0.133483    1.944592    -14.462778    25.232204    -16.898958    -23.984470    5.011219    2.738139    29.141691    -0.597807    13.973291    -3.344803    -11.974934    
